<mxfile host="app.diagrams.net" modified="2023-03-18T02:47:14.821Z" agent="5.0 (Windows NT 10.0; Win64; x64) AppleWebKit/537.36 (KHTML, like Gecko) Chrome/93.0.4577.63 Safari/537.36 Edg/93.0.961.47" etag="vbs1GApUycA59SSz3yby" version="21.0.6" type="github">
  <diagram name="第 1 页" id="GhMeG2_PH0T_44Fa1xvc">
    <mxGraphModel dx="1290" dy="615" grid="1" gridSize="10" guides="1" tooltips="1" connect="1" arrows="1" fold="1" page="1" pageScale="1" pageWidth="827" pageHeight="1169" math="0" shadow="0">
      <root>
        <mxCell id="0" />
        <mxCell id="1" parent="0" />
        <mxCell id="4bsjNI0Q4H4RjQ86WclX-2" value="参数修改，模型重建" style="edgeStyle=orthogonalEdgeStyle;rounded=0;orthogonalLoop=1;jettySize=auto;html=1;entryX=0;entryY=0.5;entryDx=0;entryDy=0;" edge="1" parent="1" source="4bsjNI0Q4H4RjQ86WclX-1" target="4bsjNI0Q4H4RjQ86WclX-3">
          <mxGeometry relative="1" as="geometry">
            <mxPoint x="290" y="230" as="targetPoint" />
            <Array as="points" />
          </mxGeometry>
        </mxCell>
        <mxCell id="4bsjNI0Q4H4RjQ86WclX-1" value="文档状态1" style="ellipse;whiteSpace=wrap;html=1;aspect=fixed;" vertex="1" parent="1">
          <mxGeometry x="50" y="190" width="80" height="80" as="geometry" />
        </mxCell>
        <mxCell id="4bsjNI0Q4H4RjQ86WclX-3" value="文档状态2" style="ellipse;whiteSpace=wrap;html=1;aspect=fixed;" vertex="1" parent="1">
          <mxGeometry x="300" y="190" width="80" height="80" as="geometry" />
        </mxCell>
        <mxCell id="4bsjNI0Q4H4RjQ86WclX-6" value="撤销" style="endArrow=classic;html=1;rounded=0;exitX=0.5;exitY=1;exitDx=0;exitDy=0;edgeStyle=orthogonalEdgeStyle;curved=1;dashed=1;" edge="1" parent="1" source="4bsjNI0Q4H4RjQ86WclX-3" target="4bsjNI0Q4H4RjQ86WclX-1">
          <mxGeometry width="50" height="50" relative="1" as="geometry">
            <mxPoint x="110" y="400" as="sourcePoint" />
            <mxPoint x="120" y="340" as="targetPoint" />
            <Array as="points">
              <mxPoint x="340" y="320" />
              <mxPoint x="90" y="320" />
            </Array>
          </mxGeometry>
        </mxCell>
        <mxCell id="4bsjNI0Q4H4RjQ86WclX-9" value="重做" style="endArrow=classic;html=1;rounded=0;exitX=0.5;exitY=0;exitDx=0;exitDy=0;edgeStyle=orthogonalEdgeStyle;entryX=0.5;entryY=0;entryDx=0;entryDy=0;curved=1;dashed=1;" edge="1" parent="1" source="4bsjNI0Q4H4RjQ86WclX-1" target="4bsjNI0Q4H4RjQ86WclX-3">
          <mxGeometry width="50" height="50" relative="1" as="geometry">
            <mxPoint x="170" y="190" as="sourcePoint" />
            <mxPoint x="220" y="140" as="targetPoint" />
            <Array as="points">
              <mxPoint x="90" y="140" />
              <mxPoint x="340" y="140" />
            </Array>
          </mxGeometry>
        </mxCell>
        <mxCell id="4bsjNI0Q4H4RjQ86WclX-11" value="参数修改，模型重建" style="edgeStyle=orthogonalEdgeStyle;rounded=0;orthogonalLoop=1;jettySize=auto;html=1;entryX=0;entryY=0.5;entryDx=0;entryDy=0;" edge="1" parent="1" source="4bsjNI0Q4H4RjQ86WclX-12" target="4bsjNI0Q4H4RjQ86WclX-13">
          <mxGeometry relative="1" as="geometry">
            <mxPoint x="430" y="540" as="targetPoint" />
            <Array as="points" />
          </mxGeometry>
        </mxCell>
        <mxCell id="4bsjNI0Q4H4RjQ86WclX-12" value="文档状态1" style="ellipse;whiteSpace=wrap;html=1;aspect=fixed;" vertex="1" parent="1">
          <mxGeometry x="190" y="500" width="80" height="80" as="geometry" />
        </mxCell>
        <mxCell id="4bsjNI0Q4H4RjQ86WclX-13" value="文档状态2" style="ellipse;whiteSpace=wrap;html=1;aspect=fixed;" vertex="1" parent="1">
          <mxGeometry x="420" y="500" width="80" height="80" as="geometry" />
        </mxCell>
        <mxCell id="4bsjNI0Q4H4RjQ86WclX-14" value="撤销" style="endArrow=classic;html=1;rounded=0;exitX=0.5;exitY=1;exitDx=0;exitDy=0;edgeStyle=orthogonalEdgeStyle;curved=1;dashed=1;" edge="1" parent="1" source="4bsjNI0Q4H4RjQ86WclX-13" target="4bsjNI0Q4H4RjQ86WclX-12">
          <mxGeometry width="50" height="50" relative="1" as="geometry">
            <mxPoint x="250" y="710" as="sourcePoint" />
            <mxPoint x="260" y="650" as="targetPoint" />
            <Array as="points">
              <mxPoint x="460" y="620" />
              <mxPoint x="230" y="620" />
            </Array>
          </mxGeometry>
        </mxCell>
        <mxCell id="4bsjNI0Q4H4RjQ86WclX-15" value="重做" style="endArrow=classic;html=1;rounded=0;edgeStyle=orthogonalEdgeStyle;entryX=0.5;entryY=0;entryDx=0;entryDy=0;curved=1;dashed=1;" edge="1" parent="1" source="4bsjNI0Q4H4RjQ86WclX-19" target="4bsjNI0Q4H4RjQ86WclX-13">
          <mxGeometry width="50" height="50" relative="1" as="geometry">
            <mxPoint x="310" y="500" as="sourcePoint" />
            <mxPoint x="360" y="450" as="targetPoint" />
            <Array as="points">
              <mxPoint x="50" y="450" />
              <mxPoint x="460" y="450" />
            </Array>
          </mxGeometry>
        </mxCell>
        <mxCell id="4bsjNI0Q4H4RjQ86WclX-18" value="模型重建，重走拓扑元素命名算法" style="endArrow=classic;html=1;rounded=0;dashed=1;entryX=1;entryY=0.5;entryDx=0;entryDy=0;" edge="1" parent="1" target="4bsjNI0Q4H4RjQ86WclX-19">
          <mxGeometry x="0.0078" width="50" height="50" relative="1" as="geometry">
            <mxPoint x="230" y="580" as="sourcePoint" />
            <mxPoint x="160" y="660" as="targetPoint" />
            <Array as="points">
              <mxPoint x="190" y="610" />
            </Array>
            <mxPoint as="offset" />
          </mxGeometry>
        </mxCell>
        <mxCell id="4bsjNI0Q4H4RjQ86WclX-19" value="文档状态3" style="ellipse;whiteSpace=wrap;html=1;aspect=fixed;rotation=-15;" vertex="1" parent="1">
          <mxGeometry x="10" y="630" width="80" height="80" as="geometry" />
        </mxCell>
        <mxCell id="4bsjNI0Q4H4RjQ86WclX-20" value="模型重建，重做拓扑元素命名算法" style="endArrow=classic;html=1;rounded=0;exitX=1;exitY=0.5;exitDx=0;exitDy=0;dashed=1;" edge="1" parent="1" source="4bsjNI0Q4H4RjQ86WclX-13" target="4bsjNI0Q4H4RjQ86WclX-21">
          <mxGeometry x="0.0288" y="-8" width="50" height="50" relative="1" as="geometry">
            <mxPoint x="520" y="520" as="sourcePoint" />
            <mxPoint x="550" y="440" as="targetPoint" />
            <mxPoint as="offset" />
          </mxGeometry>
        </mxCell>
        <mxCell id="4bsjNI0Q4H4RjQ86WclX-21" value="文档状态4" style="ellipse;whiteSpace=wrap;html=1;aspect=fixed;" vertex="1" parent="1">
          <mxGeometry x="520" y="360" width="80" height="80" as="geometry" />
        </mxCell>
        <mxCell id="4bsjNI0Q4H4RjQ86WclX-32" value="草图修改" style="edgeStyle=orthogonalEdgeStyle;rounded=0;orthogonalLoop=1;jettySize=auto;html=1;entryX=0;entryY=0.5;entryDx=0;entryDy=0;" edge="1" parent="1" source="4bsjNI0Q4H4RjQ86WclX-33" target="4bsjNI0Q4H4RjQ86WclX-41">
          <mxGeometry relative="1" as="geometry">
            <mxPoint x="410" y="950" as="targetPoint" />
            <Array as="points" />
          </mxGeometry>
        </mxCell>
        <mxCell id="4bsjNI0Q4H4RjQ86WclX-33" value="文档状态1" style="ellipse;whiteSpace=wrap;html=1;aspect=fixed;" vertex="1" parent="1">
          <mxGeometry x="228.98979485566355" y="910" width="80" height="80" as="geometry" />
        </mxCell>
        <mxCell id="4bsjNI0Q4H4RjQ86WclX-34" value="文档状态3" style="ellipse;whiteSpace=wrap;html=1;aspect=fixed;" vertex="1" parent="1">
          <mxGeometry x="569.9997948556636" y="910" width="80" height="80" as="geometry" />
        </mxCell>
        <mxCell id="4bsjNI0Q4H4RjQ86WclX-35" value="撤销" style="endArrow=classic;html=1;rounded=0;exitX=0.5;exitY=1;exitDx=0;exitDy=0;edgeStyle=orthogonalEdgeStyle;curved=1;dashed=1;entryX=0.5;entryY=1;entryDx=0;entryDy=0;" edge="1" parent="1" source="4bsjNI0Q4H4RjQ86WclX-34" target="4bsjNI0Q4H4RjQ86WclX-41">
          <mxGeometry width="50" height="50" relative="1" as="geometry">
            <mxPoint x="288.98979485566355" y="1120" as="sourcePoint" />
            <mxPoint x="430" y="1000" as="targetPoint" />
            <Array as="points">
              <mxPoint x="610" y="1040" />
              <mxPoint x="430" y="1040" />
            </Array>
          </mxGeometry>
        </mxCell>
        <mxCell id="4bsjNI0Q4H4RjQ86WclX-36" value="重做" style="endArrow=classic;html=1;rounded=0;edgeStyle=orthogonalEdgeStyle;entryX=0.5;entryY=0;entryDx=0;entryDy=0;curved=1;dashed=1;" edge="1" parent="1" source="4bsjNI0Q4H4RjQ86WclX-38" target="4bsjNI0Q4H4RjQ86WclX-41">
          <mxGeometry width="50" height="50" relative="1" as="geometry">
            <mxPoint x="348.98979485566355" y="910" as="sourcePoint" />
            <mxPoint x="398.98979485566355" y="860" as="targetPoint" />
            <Array as="points">
              <mxPoint x="89" y="880" />
              <mxPoint x="430" y="880" />
            </Array>
          </mxGeometry>
        </mxCell>
        <mxCell id="4bsjNI0Q4H4RjQ86WclX-37" value="模型重建，重走拓扑元素命名算法" style="endArrow=classic;html=1;rounded=0;dashed=1;entryX=1;entryY=0.5;entryDx=0;entryDy=0;" edge="1" parent="1" target="4bsjNI0Q4H4RjQ86WclX-38">
          <mxGeometry x="0.098" y="-8" width="50" height="50" relative="1" as="geometry">
            <mxPoint x="268.98979485566355" y="990" as="sourcePoint" />
            <mxPoint x="198.98979485566355" y="1070" as="targetPoint" />
            <Array as="points">
              <mxPoint x="228.98979485566355" y="1020" />
            </Array>
            <mxPoint as="offset" />
          </mxGeometry>
        </mxCell>
        <mxCell id="4bsjNI0Q4H4RjQ86WclX-38" value="文档状态3" style="ellipse;whiteSpace=wrap;html=1;aspect=fixed;rotation=-15;" vertex="1" parent="1">
          <mxGeometry x="48.98979485566356" y="1040" width="80" height="80" as="geometry" />
        </mxCell>
        <mxCell id="4bsjNI0Q4H4RjQ86WclX-39" value="模型重建，重做拓扑元素命名算法" style="endArrow=classic;html=1;rounded=0;exitX=1;exitY=0.5;exitDx=0;exitDy=0;dashed=1;" edge="1" parent="1" source="4bsjNI0Q4H4RjQ86WclX-34" target="4bsjNI0Q4H4RjQ86WclX-40">
          <mxGeometry x="0.8089" y="-52" width="50" height="50" relative="1" as="geometry">
            <mxPoint x="558.9897948556636" y="930" as="sourcePoint" />
            <mxPoint x="588.9897948556636" y="850" as="targetPoint" />
            <mxPoint x="-1" as="offset" />
          </mxGeometry>
        </mxCell>
        <mxCell id="4bsjNI0Q4H4RjQ86WclX-40" value="文档状态4" style="ellipse;whiteSpace=wrap;html=1;aspect=fixed;" vertex="1" parent="1">
          <mxGeometry x="689.9997948556636" y="810" width="80" height="80" as="geometry" />
        </mxCell>
        <mxCell id="4bsjNI0Q4H4RjQ86WclX-41" value="文档状态2" style="ellipse;whiteSpace=wrap;html=1;aspect=fixed;" vertex="1" parent="1">
          <mxGeometry x="390" y="910" width="80" height="80" as="geometry" />
        </mxCell>
        <mxCell id="4bsjNI0Q4H4RjQ86WclX-43" value="模型重建" style="endArrow=classic;html=1;rounded=0;exitX=1;exitY=0.5;exitDx=0;exitDy=0;entryX=0;entryY=0.5;entryDx=0;entryDy=0;" edge="1" parent="1" source="4bsjNI0Q4H4RjQ86WclX-41" target="4bsjNI0Q4H4RjQ86WclX-34">
          <mxGeometry width="50" height="50" relative="1" as="geometry">
            <mxPoint x="460" y="1100" as="sourcePoint" />
            <mxPoint x="570" y="960" as="targetPoint" />
          </mxGeometry>
        </mxCell>
        <mxCell id="4bsjNI0Q4H4RjQ86WclX-44" value="" style="endArrow=classic;html=1;rounded=0;exitX=0.5;exitY=1;exitDx=0;exitDy=0;dashed=1;edgeStyle=orthogonalEdgeStyle;curved=1;entryX=0.5;entryY=1;entryDx=0;entryDy=0;" edge="1" parent="1" source="4bsjNI0Q4H4RjQ86WclX-41" target="4bsjNI0Q4H4RjQ86WclX-33">
          <mxGeometry width="50" height="50" relative="1" as="geometry">
            <mxPoint x="350" y="1150" as="sourcePoint" />
            <mxPoint x="370" y="1020" as="targetPoint" />
            <Array as="points">
              <mxPoint x="430" y="1050" />
              <mxPoint x="269" y="1050" />
            </Array>
          </mxGeometry>
        </mxCell>
        <mxCell id="4bsjNI0Q4H4RjQ86WclX-45" value="撤销" style="edgeLabel;html=1;align=center;verticalAlign=middle;resizable=0;points=[];" vertex="1" connectable="0" parent="4bsjNI0Q4H4RjQ86WclX-44">
          <mxGeometry x="0.1302" y="-5" relative="1" as="geometry">
            <mxPoint as="offset" />
          </mxGeometry>
        </mxCell>
        <mxCell id="4bsjNI0Q4H4RjQ86WclX-47" value="重做" style="endArrow=classic;html=1;rounded=0;exitX=0.5;exitY=0;exitDx=0;exitDy=0;edgeStyle=orthogonalEdgeStyle;curved=1;entryX=0.5;entryY=0;entryDx=0;entryDy=0;dashed=1;" edge="1" parent="1" source="4bsjNI0Q4H4RjQ86WclX-41" target="4bsjNI0Q4H4RjQ86WclX-34">
          <mxGeometry width="50" height="50" relative="1" as="geometry">
            <mxPoint x="460" y="850" as="sourcePoint" />
            <mxPoint x="510" y="800" as="targetPoint" />
            <Array as="points">
              <mxPoint x="430" y="870" />
              <mxPoint x="610" y="870" />
            </Array>
          </mxGeometry>
        </mxCell>
      </root>
    </mxGraphModel>
  </diagram>
</mxfile>
